<svg width="250" height="220" xmlns="http://www.w3.org/2000/svg"><g id="Page-1" fill="none" fill-rule="evenodd"><g id="Group-3"><rect id="Rectangle" stroke="#979797" fill="#B10E11" x=".5" y=".5" width="249" height="219" rx="20"/><g id="Group-2" transform="translate(23 38)" fill="#FFF" fill-rule="nonzero"><path d="M146.8 25.2c-1.9-.4-3.7-.8-5.5-1.1l1-10.7L103 0 64 13.7l1.4 14c-1.3-.3-2.6-.6-4-1l-5.6-1.5L59.2 53l2.1 17.3c.4 2.9 2.5 6.1 5.1 7.5l32.1 17.6c1.3.7 3 1.1 4.6 1.1 1.6 0 3.3-.4 4.6-1.1L140 77.5c2.6-1.4 4.7-4.6 5.1-7.5l2-17 3.3-27-3.6-.8zm-75.1 3.7l-1.1-11L103 6.6l32.6 11.2-.5 5.5c-13.1-1.4-22 .5-30.6 2.8l-1.5.4c-8.9 2.4-17.3 4.6-31.3 2.4zm46.2 13.5c0 2.8-2.3 5.1-5.1 5.1H96.4c-2.8 0-5.1-2.3-5.1-5.1s2.3-5.1 5.1-5.1h16.4c2.8 0 5.1 2.3 5.1 5.1zm-15.3 39.4h-6.2c-2.8 0-5.1-2.3-5.1-5.1s2.3-5.1 5.1-5.1h6.2c2.8 0 5.1 2.3 5.1 5.1.1 2.8-2.2 5.1-5.1 5.1zm28.1-17.1h-26.5c-2.8 0-5.1-2.3-5.1-5.1s2.3-5.1 5.1-5.1h26.5c2.8 0 5.1 2.3 5.1 5.1s-2.3 5.1-5.1 5.1z" id="Shape"/><g id="Group" transform="translate(0 117.3)"><path d="M12.9 16.6h-7l-1.3 4H.3L7.6 1.1h3.7l7.3 19.5h-4.3l-1.4-4zm-6-3.3h4.9L9.4 6l-2.5 7.3z" id="Shape"/><path d="M23 6.1l.1 1.7c1-1.3 2.4-1.9 4.2-1.9 1.5 0 2.7.5 3.4 1.4.7.9 1.1 2.2 1.2 4v9.4H28v-9.3c0-.8-.2-1.4-.5-1.8-.4-.4-1-.6-1.8-.6-1.1 0-1.9.5-2.5 1.4v10.2h-3.9V6.1H23z" id="Path"/><path d="M34.2 13.3c0-2.2.5-4 1.6-5.4 1.1-1.4 2.5-2 4.3-2 1.6 0 2.8.5 3.7 1.6l.2-1.4h3.5v14c0 1.3-.3 2.4-.9 3.3-.6.9-1.4 1.7-2.4 2.1-1 .5-2.3.7-3.7.7-1.1 0-2.1-.2-3.1-.6-1-.4-1.8-1-2.3-1.6l1.7-2.4c1 1.1 2.1 1.6 3.5 1.6 1 0 1.8-.3 2.4-.8.6-.5.9-1.3.9-2.3v-.8c-.9 1-2.1 1.5-3.5 1.5-1.7 0-3.1-.7-4.2-2-1.1-1.4-1.6-3.2-1.6-5.4l-.1-.1zm3.9.2c0 1.3.3 2.4.8 3.1.5.7 1.2 1.1 2.2 1.1 1.2 0 2-.4 2.5-1.3v-6.1c-.5-.9-1.4-1.3-2.5-1.3-.9 0-1.7.4-2.2 1.1-.6.8-.8 1.9-.8 3.4z" id="Shape"/><path d="M59.1 19.1c-1 1.2-2.3 1.7-4 1.7-1.6 0-2.7-.4-3.6-1.3-.8-.9-1.2-2.2-1.3-3.9V6.1h3.9v9.4c0 1.5.7 2.3 2.1 2.3 1.3 0 2.2-.5 2.7-1.4V6.1h3.9v14.5h-3.6l-.1-1.5zM69.8 20.6h-3.9V0h3.9z" id="Path"/><path d="M81.4 20.6c-.2-.3-.3-.8-.4-1.3-.9 1-2.2 1.6-3.7 1.6-1.4 0-2.6-.4-3.5-1.2a4.1 4.1 0 0 1-1.4-3.1c0-1.5.6-2.7 1.7-3.5 1.1-.8 2.8-1.2 4.9-1.2h1.8v-.8c0-.7-.2-1.2-.5-1.6-.3-.4-.9-.6-1.6-.6-.7 0-1.2.2-1.5.5-.3.3-.6.7-.6 1.3h-3.9c0-.8.3-1.6.8-2.3.5-.7 1.3-1.3 2.2-1.7.9-.4 2-.6 3.2-.6 1.8 0 3.2.4 4.3 1.3 1.1.9 1.6 2.2 1.6 3.8v6.3c0 1.4.2 2.4.6 3.1v.2h-4v-.2zm-3.2-2.7c.6 0 1.1-.1 1.6-.4.5-.3.8-.6 1.1-1V14h-1.4c-1.9 0-3 .7-3.1 2v.2c0 .5.2.9.5 1.2.3.4.7.5 1.3.5z" id="Shape"/><path d="M95.9 9.7c-.5-.1-1-.1-1.4-.1-1.5 0-2.4.5-2.9 1.5v9.5h-3.9V6.1h3.7l.1 1.7c.8-1.3 1.9-2 3.2-2 .4 0 .8.1 1.2.2v3.7zM109.1 20.6h-4V1.1h4zM116.1 6.1l.1 1.7c1-1.3 2.4-1.9 4.2-1.9 1.5 0 2.7.5 3.4 1.4.7.9 1.1 2.2 1.2 4v9.4h-3.9v-9.3c0-.8-.2-1.4-.5-1.8-.4-.4-1-.6-1.8-.6-1.1 0-1.9.5-2.5 1.4v10.2h-3.9V6.1h3.7z" id="Path"/><path d="M135 20.6V1.1h6c1.7 0 3.2.4 4.6 1.2 1.4.8 2.4 1.9 3.2 3.3.8 1.4 1.1 3 1.1 4.9v.9c0 1.8-.4 3.4-1.1 4.8-.7 1.4-1.8 2.5-3.2 3.3-1.4.8-2.9 1.2-4.6 1.2l-6-.1zm4-16.2v13h1.9c1.6 0 2.8-.5 3.6-1.5.8-1 1.3-2.5 1.3-4.4v-1c0-2-.4-3.5-1.2-4.5-.8-1-2-1.5-3.6-1.5h-2v-.1zM159.2 20.9c-2.1 0-3.9-.7-5.2-2-1.3-1.3-2-3-2-5.2v-.4c0-1.5.3-2.8.8-3.9.6-1.1 1.4-2 2.4-2.7 1-.6 2.2-.9 3.5-.9 2 0 3.5.6 4.7 1.9 1.2 1.3 1.7 3 1.7 5.3v1.6h-9.2c.1.9.5 1.7 1.1 2.3.6.6 1.4.9 2.4.9 1.5 0 2.7-.5 3.5-1.6l1.9 2.1c-.6.8-1.4 1.5-2.4 1.9-.9.4-2 .7-3.2.7zM158.8 9c-.8 0-1.4.3-1.9.8s-.8 1.3-.9 2.2h5.4v-.3c0-.9-.3-1.5-.7-2-.4-.5-1.1-.7-1.9-.7zM180.4 13.5c0 2.2-.5 4-1.5 5.4-1 1.4-2.4 2-4.1 2-1.5 0-2.6-.5-3.5-1.5v6.8h-3.9V6.1h3.6l.1 1.4c.9-1.1 2.2-1.7 3.7-1.7 1.8 0 3.2.7 4.2 2s1.5 3.1 1.5 5.5l-.1.2zm-3.9-.3c0-1.4-.2-2.4-.7-3.1-.5-.7-1.2-1.1-2.1-1.1-1.2 0-2 .5-2.5 1.4v5.9c.5 1 1.3 1.4 2.5 1.4 1.9.1 2.8-1.5 2.8-4.5z" id="Shape"/><path d="M187.4 2.6v3.6h2.5V9h-2.5v7.2c0 .5.1.9.3 1.2.2.2.6.3 1.2.3.4 0 .8 0 1.1-.1v2.9c-.8.2-1.5.3-2.3.3-2.7 0-4.1-1.4-4.2-4.1V9h-2.1V6.2h2.1V2.6h3.9zM195.8 7.7c1-1.2 2.3-1.8 3.9-1.8 3.1 0 4.7 1.8 4.8 5.5v9.3h-3.9v-9.2c0-.8-.2-1.4-.5-1.8-.4-.4-1-.6-1.8-.6-1.1 0-2 .4-2.5 1.3v10.3H192V0h3.9v7.7h-.1z" id="Path"/></g></g></g></g></svg>