<svg version="1" id="Layer_1" xmlns="http://www.w3.org/2000/svg" viewBox="0 0 500 444"><style>.st1{fill:#db323b}.st2{fill:#7f7f7f}.st3{fill:#393c4a}</style><path fill="#ae3034" d="M253 236.9l77.5-39.8L343 82l-90-33.5z"/><path class="st1" d="M253 236.9l-77.5-39.8L163 82l90-33.5z"/><path class="st1" d="M250 269.3l-104.2-53.5L129 61.4l121-45 121 45-16.8 154.4L250 269.3zm-93-61.2l93 47.7 93-47.7 15.1-138.7L250 29.2 141.9 69.4 157 208.1z"/><g><path class="st2" d="M23.1 351.4h-6l23.2-53.7h5.3l23.1 53.7h-6.1l-5.9-14.1H28.9l-5.8 14.1zm7.9-19.1h23.7l-11.8-28.5L31 332.3zM129.8 343.5h.2v-45.7h5.5v53.7h-6.8l-31.2-46.2h-.2v46.2h-5.5v-53.7h6.8l31.2 45.7zM205.6 307.4c-1.9-2-4.1-3.5-6.7-4.6-2.6-1.1-5.5-1.6-8.9-1.6-3.4 0-6.5.6-9.3 1.9-2.8 1.3-5.1 3-7 5.1-1.9 2.1-3.4 4.6-4.4 7.5-1 2.8-1.6 5.8-1.6 8.9 0 3.1.5 6.1 1.6 8.9 1 2.8 2.5 5.3 4.4 7.4 1.9 2.1 4.3 3.8 7 5.1 2.8 1.3 5.9 1.9 9.3 1.9 3 0 5.8-.3 8.3-1 2.5-.7 4.6-1.5 6.1-2.5v-16.3H192v-4.9h18v24.3c-2.9 1.8-6.1 3.1-9.5 4-3.4.9-6.9 1.3-10.5 1.3-4 0-7.8-.7-11.2-2.1-3.4-1.4-6.4-3.4-8.9-5.9-2.5-2.5-4.4-5.5-5.8-8.9-1.4-3.4-2.1-7.2-2.1-11.3s.7-7.9 2.1-11.3c1.4-3.4 3.4-6.4 5.9-8.9 2.5-2.5 5.5-4.5 8.9-5.9 3.4-1.4 7.1-2.1 11.1-2.1 4.3 0 8 .6 11.2 1.9 3.2 1.3 5.9 3.1 8.2 5.4l-3.8 3.7zM258.9 352.8c-4 0-7.4-.7-9.9-2.1-2.6-1.4-4.6-3.1-6.1-5.3-1.5-2.1-2.6-4.4-3.1-6.9-.6-2.5-.9-4.9-.9-7.1v-33.7h5.5v33.1c0 2.2.3 4.3.8 6.3s1.3 3.9 2.5 5.5c1.1 1.6 2.6 2.9 4.5 3.9s4.2 1.5 6.9 1.5 5-.5 6.9-1.5c1.9-1 3.4-2.3 4.5-3.9s2-3.4 2.5-5.5.8-4.2.8-6.3v-33.1h5.5v33.7c0 2.2-.3 4.6-.9 7.1-.6 2.5-1.6 4.8-3.1 6.9-1.5 2.1-3.6 3.9-6.2 5.3-2.9 1.4-6.2 2.1-10.2 2.1zM313.6 346.6h25v4.9h-30.5v-53.7h5.5v48.8zM361.6 351.4h-6l23.2-53.7h5.3l23.1 53.7h-6.1l-5.9-14.1h-27.8l-5.8 14.1zm7.9-19.1h23.7l-11.8-28.5-11.9 28.5zM435.7 351.4h-5.5v-53.7H446c2.6 0 5.1.3 7.3.8s4.2 1.3 5.8 2.5c1.6 1.1 2.9 2.6 3.8 4.4s1.4 4 1.4 6.7c0 2-.4 3.8-1.1 5.4-.7 1.6-1.7 3-2.9 4.2-1.2 1.2-2.7 2.1-4.3 2.8-1.7.7-3.5 1.2-5.5 1.4l15.7 25.6h-6.7l-14.9-25.1h-9.1v25zm0-29.8h9.5c4.4 0 7.8-.8 10.2-2.4 2.4-1.6 3.6-4 3.6-7.2 0-1.8-.3-3.3-1-4.5-.7-1.2-1.6-2.2-2.7-3-1.2-.8-2.6-1.3-4.2-1.7s-3.5-.5-5.5-.5h-9.7v19.3z"/></g><g><path class="st3" d="M60.5 416.4c-.8 1.3-1.9 2.5-3 3.6-1.2 1.1-2.6 2.1-4.1 3-1.6.9-3.3 1.5-5.2 2-1.9.5-4 .7-6.2.7-3.7 0-7.2-.7-10.4-2s-5.9-3.1-8.2-5.4c-2.3-2.3-4.1-5-5.4-8.2-1.3-3.2-1.9-6.6-1.9-10.4 0-3.8.7-7.3 2-10.4 1.3-3.2 3.1-5.9 5.4-8.2 2.3-2.3 5-4.1 8.2-5.4 3.2-1.3 6.6-2 10.3-2 1.8 0 3.6.2 5.4.6 1.8.4 3.4.9 4.9 1.6 1.5.7 2.9 1.5 4.2 2.5s2.3 2.1 3.1 3.3l-4.2 3.1c-.5-.8-1.2-1.6-2.1-2.4-.9-.8-1.9-1.5-3-2.1-1.2-.6-2.4-1.1-3.8-1.5-1.4-.4-2.9-.6-4.4-.6-3.2 0-6.1.6-8.6 1.7s-4.7 2.7-6.5 4.7c-1.8 2-3.1 4.3-4.1 6.9s-1.4 5.3-1.4 8.2c0 2.9.5 5.6 1.4 8.2s2.3 4.9 4.1 6.9 3.9 3.5 6.5 4.7c2.5 1.2 5.4 1.7 8.6 1.7 2.8 0 5.6-.6 8.1-1.7 2.6-1.2 4.7-3 6.4-5.6l3.9 2.5zM124.3 399.7c0 3.8-.7 7.3-2 10.4s-3.1 5.9-5.4 8.2c-2.3 2.3-5 4.1-8.2 5.4-3.2 1.3-6.6 2-10.3 2s-7.1-.7-10.3-2c-3.2-1.3-5.9-3.1-8.2-5.4-2.3-2.3-4.1-5-5.4-8.2s-2-6.6-2-10.4c0-3.8.7-7.3 2-10.4 1.3-3.2 3.1-5.9 5.4-8.2 2.3-2.3 5-4.1 8.2-5.4 3.1-1.3 6.6-2 10.3-2s7.1.7 10.3 2c3.1 1.3 5.9 3.1 8.2 5.4 2.3 2.3 4.1 5.1 5.4 8.2 1.4 3.1 2 6.6 2 10.4zm-5.3 0c0-2.9-.5-5.6-1.4-8.2-.9-2.6-2.3-4.9-4.1-6.9-1.8-2-3.9-3.6-6.5-4.7-2.5-1.2-5.4-1.7-8.6-1.7-3.2 0-6 .6-8.6 1.7-2.5 1.2-4.7 2.7-6.5 4.7-1.8 2-3.1 4.3-4.1 6.9-.9 2.6-1.4 5.4-1.4 8.2 0 2.9.5 5.6 1.4 8.2.9 2.6 2.3 4.9 4.1 6.8 1.8 2 3.9 3.5 6.5 4.7 2.5 1.2 5.4 1.7 8.6 1.7 3.2 0 6-.6 8.6-1.7 2.5-1.2 4.7-2.7 6.5-4.7 1.8-2 3.1-4.2 4.1-6.8 1-2.5 1.4-5.3 1.4-8.2zM165.8 382.9c-1.1-1.5-2.5-2.7-4.1-3.6-1.7-.9-3.7-1.4-6.1-1.4-1.2 0-2.4.2-3.7.6-1.3.4-2.4.9-3.4 1.7-1 .8-1.9 1.7-2.5 2.9-.6 1.2-.9 2.5-.9 4.1 0 1.6.3 2.9.9 3.9.6 1 1.4 1.9 2.4 2.6 1 .7 2.1 1.3 3.4 1.8 1.3.5 2.6.9 4 1.4 1.7.6 3.5 1.2 5.2 1.8 1.7.7 3.3 1.5 4.7 2.6 1.4 1 2.5 2.4 3.4 4 .9 1.6 1.3 3.7 1.3 6.1 0 2.5-.5 4.6-1.4 6.4s-2.2 3.3-3.7 4.4c-1.5 1.2-3.2 2-5.2 2.6s-3.9.8-5.8.8c-1.5 0-3-.2-4.5-.5s-2.9-.8-4.3-1.4c-1.4-.6-2.6-1.4-3.8-2.3-1.2-.9-2.2-2-3.1-3.2l4.3-3.2c1.1 1.8 2.6 3.3 4.5 4.4 1.9 1.2 4.2 1.8 6.8 1.8 1.3 0 2.5-.2 3.8-.6 1.3-.4 2.5-1 3.5-1.8 1.1-.8 1.9-1.8 2.6-3 .7-1.2 1-2.6 1-4.2 0-1.7-.3-3.2-1-4.3-.7-1.1-1.6-2.1-2.7-2.9-1.1-.8-2.4-1.4-3.8-1.9s-3-1-4.5-1.5c-1.6-.5-3.2-1.1-4.8-1.7s-3-1.5-4.3-2.6-2.3-2.3-3-3.9c-.8-1.5-1.2-3.4-1.2-5.7 0-2.4.5-4.4 1.4-6.2 1-1.7 2.2-3.1 3.7-4.3 1.5-1.1 3.2-1.9 5.1-2.5 1.9-.5 3.7-.8 5.5-.8 3.4 0 6.2.6 8.6 1.8 2.4 1.2 4.2 2.6 5.4 4.2l-3.7 3.6zM202.9 424.5h-5v-45.1h-16.6v-4.5h38.2v4.5h-16.6v45.1zM229.4 424.5h-5.5l21.4-49.5h4.9l21.3 49.5h-5.6l-5.5-13h-25.6l-5.4 13zm7.3-17.7h21.8l-10.9-26.3-10.9 26.3zM314 424.5h-5V375h14.6c2.4 0 4.7.2 6.8.7 2.1.5 3.9 1.2 5.4 2.3s2.7 2.4 3.5 4.1 1.3 3.7 1.3 6.2c0 1.8-.3 3.5-1 5s-1.5 2.8-2.7 3.9c-1.1 1.1-2.4 2-4 2.6s-3.2 1.1-5 1.3l14.5 23.6h-6.2l-13.7-23.2H314v23zm0-27.5h8.7c4.1 0 7.2-.7 9.4-2.2 2.2-1.5 3.3-3.7 3.3-6.6 0-1.6-.3-3-.9-4.1-.6-1.1-1.4-2-2.5-2.7-1.1-.7-2.4-1.2-3.9-1.5-1.5-.3-3.2-.5-5.1-.5h-9V397zM362.9 424.5h-5V375h5v49.5zM424.8 416.4c-.8 1.3-1.9 2.5-3 3.6s-2.6 2.1-4.1 3c-1.6.9-3.3 1.5-5.2 2-1.9.5-4 .7-6.2.7-3.7 0-7.2-.7-10.4-2s-5.9-3.1-8.2-5.4c-2.3-2.3-4.1-5-5.4-8.2s-1.9-6.6-1.9-10.4c0-3.8.7-7.3 2-10.4 1.3-3.2 3.1-5.9 5.4-8.2 2.3-2.3 5-4.1 8.2-5.4 3.1-1.3 6.6-2 10.3-2 1.8 0 3.6.2 5.4.6 1.8.4 3.4.9 4.9 1.6 1.5.7 2.9 1.5 4.2 2.5 1.3 1 2.3 2.1 3.2 3.3l-4.2 3.1c-.5-.8-1.2-1.6-2.1-2.4-.9-.8-1.9-1.5-3-2.1-1.2-.6-2.4-1.1-3.8-1.5-1.4-.4-2.9-.6-4.4-.6-3.2 0-6.1.6-8.6 1.7-2.5 1.2-4.7 2.7-6.5 4.7-1.8 2-3.1 4.3-4.1 6.9-.9 2.6-1.4 5.3-1.4 8.2 0 2.9.5 5.6 1.4 8.2 1 2.6 2.3 4.9 4.1 6.9s3.9 3.5 6.5 4.7c2.5 1.2 5.4 1.7 8.6 1.7 2.8 0 5.6-.6 8.1-1.7 2.6-1.2 4.7-3 6.4-5.6l3.8 2.5zM439.3 424.5h-5.5l21.4-49.5h4.9l21.3 49.5h-5.6l-5.5-13h-25.6l-5.4 13zm7.3-17.7h21.8l-10.9-26.3-10.9 26.3z"/></g></svg>