<svg xmlns="http://www.w3.org/2000/svg" viewBox="0 0 2376.1 2523.1"><style>.st0{fill:#0147b7}</style><g id="Layer_1"><path class="st0" d="M19.5 429.1l1156.3-412 1187.5 404.7L2171 1951.7l-995.2 551.2L196.2 1959 19.5 429.1z"/><path class="st0" d="M2363.3 421.8L1175.8 17.1v2485.7l995.2-550.2 192.3-1530.8z"/><path d="M2365.9 425.6L1178.4 21v2485.7l995.2-550.2 192.3-1530.9z" opacity=".2"/><path d="M1177.7 307.4L457.1 1910.5l269.2-4.6L871 1544.2h646.4l158.4 366.2 257.3 4.6-755.4-1607.6zm1.8 513.6l243.5 509H965.3l214.2-509z" fill="#fff"/><path class="st0" d="M1353.7 1367.2h68.3l-55.3 40.2 21.1-65 21.1 65-55.2-40.2zM1354.7 1490.7h68.3l-55.3 40.2 21.1-65 21.1 65-55.2-40.2zM965.3 1367.2h68.3l-55.3 40.2 21.1-65 21.1 65-55.2-40.2zM965.3 1490.7h68.3l-55.3 40.2 21.1-65 21.1 65-55.2-40.2zM1141.7 1429.2h68.3l-55.3 40.2 21.1-65 21.1 65-55.2-40.2z"/></g></svg>