<svg xmlns="http://www.w3.org/2000/svg" xmlns:xlink="http://www.w3.org/1999/xlink" width="388" height="388"><defs><path id="a" d="M34 77.9L58 290l135.3 76.1L354.3 78 193.2 21z"/></defs><clipPath id="b"><use xlink:href="#a" overflow="visible"/></clipPath><g clip-path="url(#b)"><defs><path id="c" d="M0 0h388v388H0z"/></defs><clipPath id="d"><use xlink:href="#c" overflow="visible"/></clipPath><path clip-path="url(#d)" fill="#DD0331" d="M29 16h330.2v355.2H29z"/></g><defs><path id="e" d="M193.3 366.2l136.9-76 24-212.3L193.3 21z"/></defs><clipPath id="f"><use xlink:href="#e" overflow="visible"/></clipPath><g clip-path="url(#f)"><defs><path id="g" d="M0 0h388v388H0z"/></defs><clipPath id="h"><use xlink:href="#g" overflow="visible"/></clipPath><path clip-path="url(#h)" fill="#C30F2E" d="M188.3 16h170.9v355.2H188.3z"/></g><defs><path id="i" d="M250.5 306.7s-37.8.7-56.5.7c-18.8 0-56.6-.7-56.6-.7l-3.3-15.3-7-15.5 1.5-7.3 8.8-12.6-2.3-62.4-.1-6.4 2.4-3.3v-34h113.1s-.6 18.2-.4 27.2c.3 9 1.5 10.6 1.5 10.6s1.3 2.9.8 4.4l-5.7 16.3L260 272l-9.5 34.7z"/></defs><clipPath id="j"><use xlink:href="#i" overflow="visible"/></clipPath><g clip-path="url(#j)"><defs><path id="k" d="M0 0h388v388H0z"/></defs><clipPath id="l"><use xlink:href="#k" overflow="visible"/></clipPath><path opacity=".7" clip-path="url(#l)" fill="#90091D" d="M122 144.9h143v167.5H122z"/></g><defs><path id="m" d="M232.4 77c-1.8.3-2.6.6-2.1.5 1.3-.1 8 3.6 8.6 4a46 46 0 0 1 3.7 2.2c.2.1 5.1 3.1 8.4 11.7 6 15.8-4.5 36.3-8.2 56.5-1.4 7.6.1 15.5 1.3 23 1.3 9 7.6 17.5 7.6 17.5s-6.7 6.5-7.9 18.6c-.7 7.9-1 14.6.5 22.3 3.9 19.9 15.8 42 10 54.4-7.9 17-51.2 18.7-70.7 19v4.3c15.6-.3 51.8 1.4 68.2-2.6 8.3-2 13.5-7.3 16.6-13.5 9.3-18.8-4.7-43-12-64.1-2.3-6.8-5.8-17.7-3.8-24.7 3.6-12.4 9.3-13.7 9.3-13.7s-18.7 1.2-6.8-38.4c6.2-20.8 19.7-46.8 9.7-65.2-6.5-10.2-17.7-12.3-25.6-12.3-2.8 0-5.2.3-6.8.5z"/></defs><clipPath id="n"><use xlink:href="#m" overflow="visible"/></clipPath><g clip-path="url(#n)"><defs><path id="o" d="M0 0h388v388H0z"/></defs><clipPath id="p"><use xlink:href="#o" overflow="visible"/></clipPath><g clip-path="url(#p)"><defs><path id="q" d="M183 76h94v237h-94z"/></defs><clipPath id="r"><use xlink:href="#q" overflow="visible"/></clipPath><g clip-path="url(#r)"><defs><path id="s" d="M277.6 66.3l-104 1.9 4.3 252.4 104.1-1.8z"/></defs><clipPath id="t"><use xlink:href="#s" overflow="visible"/></clipPath><g clip-path="url(#t)"><defs><path id="u" d="M183 76h94v237h-94z"/></defs><clipPath id="v"><use xlink:href="#u" overflow="visible"/></clipPath><path clip-path="url(#v)" fill="#FFF" d="M168.6 61.3H287v264.3H168.6z"/></g></g></g></g><g><defs><path id="w" d="M0 0h388v388H0z"/></defs><clipPath id="x"><use xlink:href="#w" overflow="visible"/></clipPath></g><g><defs><path id="y" d="M155 77c1.8.3 2.7.6 2.2.5-1.4-.1-8 3.6-8.6 4a46 46 0 0 0-3.7 2.2c-.2.1-5.1 3.1-8.4 11.7-6 15.8 4.6 36.3 8.2 56.5 1.4 7.6-.1 15.5-1.2 23-1.4 9-7.6 17.5-7.6 17.5s6.7 6.5 7.8 18.6c.7 7.9 1 14.6-.4 22.3-4 19.9-15.8 42-10 54.4 7.8 17 51 18.7 70.4 19v4.3c-15.5-.3-51.6 1.4-68-2.6-8.2-2-13.4-7.3-16.5-13.5-9.3-18.8 4.7-43 12-64.1 2.2-6.8 5.8-17.7 3.8-24.7-3.6-12.4-9.4-13.7-9.4-13.7s18.7 1.2 6.9-38.4c-6.2-20.8-19.7-46.8-9.7-65.2 6.5-10.2 17.7-12.3 25.5-12.3 2.8 0 5.2.3 6.8.5z"/></defs><clipPath id="z"><use xlink:href="#y" overflow="visible"/></clipPath><g clip-path="url(#z)"><defs><path id="A" d="M0 0h388v388H0z"/></defs><clipPath id="B"><use xlink:href="#A" overflow="visible"/></clipPath><g clip-path="url(#B)"><defs><path id="C" d="M111 76h93v237h-93z"/></defs><clipPath id="D"><use xlink:href="#C" overflow="visible"/></clipPath><g clip-path="url(#D)"><defs><path id="E" d="M110 66.3l103.7 1.9-4.4 252.4-103.6-1.8z"/></defs><clipPath id="F"><use xlink:href="#E" overflow="visible"/></clipPath><g clip-path="url(#F)"><defs><path id="G" d="M111 76h93v237h-93z"/></defs><clipPath id="H"><use xlink:href="#G" overflow="visible"/></clipPath><path clip-path="url(#H)" fill="#FFF" d="M100.7 61.3h118v264.3h-118z"/></g></g></g></g></g><g><defs><path id="I" d="M0 0h388v388H0z"/></defs><clipPath id="J"><use xlink:href="#I" overflow="visible"/></clipPath><g clip-path="url(#J)"><text transform="translate(147.9 279.6)" fill="#FFF" font-family="'DINCondensed-Bold'" font-size="38.4">TURKEY</text></g></g><g><defs><path id="K" d="M180.5 176.5v39.9h-.1L166 176.5H157v66.2h9.4v-39.8h.2l14.5 39.8h9v-66.2h-9.6zm27.7.5a14.9 14.9 0 0 0-8.8 8c-1 2.1-1.4 4.5-1.4 7.2V227c0 2.8.5 5.2 1.4 7.1 1 2 2.2 3.7 3.7 5a15 15 0 0 0 5 3 16.7 16.7 0 0 0 16.6-3c1.5-1.3 2.7-3 3.7-5 .9-2 1.4-4.3 1.4-7.1v-20.8h-17v8.3h7.5v12.5c0 2.3-.7 4-2 5a6.7 6.7 0 0 1-4.4 1.7c-1.8 0-3.3-.6-4.5-1.6s-2-2.8-2-5.1v-35c0-2.2.7-4 2-5 1.2-1 2.7-1.6 4.5-1.6 1.7 0 3.2.5 4.5 1.6 1.2 1 1.9 2.8 1.9 5v3.4h9.5v-3.3c0-2.7-.5-5-1.4-7.1-1-2-2.2-3.8-3.7-5.1a16.8 16.8 0 0 0-16.5-3z"/></defs><clipPath id="L"><use xlink:href="#K" overflow="visible"/></clipPath><g clip-path="url(#L)"><defs><path id="M" d="M0 0h388v388H0z"/></defs><clipPath id="N"><use xlink:href="#M" overflow="visible"/></clipPath><g clip-path="url(#N)"><defs><path id="O" d="M156 175h74v69h-74z"/></defs><clipPath id="P"><use xlink:href="#O" overflow="visible"/></clipPath><g clip-path="url(#P)"><defs><path id="Q" d="M148.9 168h88.8v83.3h-88.8z"/></defs><clipPath id="R"><use xlink:href="#Q" overflow="visible"/></clipPath><g clip-path="url(#R)"><defs><path id="S" d="M156 175h74v69h-74z"/></defs><clipPath id="T"><use xlink:href="#S" overflow="visible"/></clipPath><path clip-path="url(#T)" fill="#FFF" d="M143.9 163h98.8v93.3h-98.8z"/></g></g></g></g></g><g><defs><path id="U" d="M195.7 39.5c-2 1.4-6.7 14.4 0 18.7 2.6 1.7 4.7 5.3 4.1 8.2-.9 4.4-5.4 8-4.2 7.2 2-1.3 12-7.5 6.6-15.4-2.5-3.7-7.9-5.5-8-9.7-.2-4.5 2.2-9 1.7-9h-.2z"/></defs><clipPath id="V"><use xlink:href="#U" overflow="visible"/></clipPath><g clip-path="url(#V)"><defs><path id="W" d="M0 0h388v388H0z"/></defs><clipPath id="X"><use xlink:href="#W" overflow="visible"/></clipPath><g clip-path="url(#X)"><defs><path id="Y" d="M188 39h20v36h-20z"/></defs><clipPath id="Z"><use xlink:href="#Y" overflow="visible"/></clipPath><g clip-path="url(#Z)"><defs><path id="aa" d="M198 28.3l24.8 36.6-29.5 20-24.7-36.7z"/></defs><clipPath id="ab"><use xlink:href="#aa" overflow="visible"/></clipPath><g clip-path="url(#ab)"><defs><path id="ac" d="M188 39h20v36h-20z"/></defs><clipPath id="ad"><use xlink:href="#ac" overflow="visible"/></clipPath><path clip-path="url(#ad)" fill="#FFF" d="M163.6 23.3h64.2v66.5h-64.2z"/></g></g></g></g></g><g><defs><path id="ae" d="M189.3 57.3a50.9 50.9 0 0 0-5 8.4c-.7 1.8-1.4 3.9-1.5 6a12.7 12.7 0 0 0 1.3 6.3 18.2 18.2 0 0 0 5.7 6.6l1.4 1a7741.3 7741.3 0 0 0 4 2.9l.8.7.8.7.8.8.7.7.7.9.7.8.6 1a20 20 0 0 1 2.6 17.1 30.5 30.5 0 0 1-5.9 11.5c-1 1.4-2 2.4-2.7 3.3l-2 1.9c-.4.4-.5 1-.5 1s0-.7.4-1.2l1.5-2.4c1.2-2 3-5 4.4-8.8.8-1.9 1.4-4 1.8-6.2.4-2.3.5-4.6.1-7-.4-2.2-1.4-4.4-2.7-6.3l-.5-.7-.6-.7-.6-.7-.6-.6-.7-.6-.6-.6-.7-.6-.3-.2-.4-.3-3.2-2.3c-.6-.3-1-.8-1.6-1.2l-1.6-1.4a21 21 0 0 1-5-7c-.6-1.4-1-3-1.2-4.4v-2.3-2.1c.5-2.8 1.5-5.1 2.6-7a26.6 26.6 0 0 1 6.4-7.7l2.1-1.6.8-.5s-1 1-2.3 2.8z"/></defs><clipPath id="af"><use xlink:href="#ae" overflow="visible"/></clipPath><g clip-path="url(#af)"><defs><path id="ag" d="M0 0h388v388H0z"/></defs><clipPath id="ah"><use xlink:href="#ag" overflow="visible"/></clipPath><path clip-path="url(#ah)" fill="#FFF" d="M174.6 49.5h34.1V134h-34.1z"/></g></g></svg>